<?xml version="1.0" encoding="utf-8"?>
<!-- Generator: Adobe Illustrator 16.0.4, SVG Export Plug-In . SVG Version: 6.00 Build 0)  -->
<!DOCTYPE svg PUBLIC "-//W3C//DTD SVG 1.1//EN" "http://www.w3.org/Graphics/SVG/1.1/DTD/svg11.dtd">
<svg version="1.1" id="Layer_1" xmlns="http://www.w3.org/2000/svg" xmlns:xlink="http://www.w3.org/1999/xlink" x="0px" y="0px"
	 width="282.092px" height="119.735px" viewBox="0 0 282.092 119.735" enable-background="new 0 0 282.092 119.735"
	 xml:space="preserve">
<g>
	<path fill="#494949" d="M5.811,28.543v61.016H0V28.543H5.811z"/>
	<path fill="#494949" d="M74.175,45.463v7.606h0.171c1.025-2.678,2.848-4.829,5.469-6.452c2.62-1.624,5.498-2.436,8.631-2.436
		c3.077,0,5.654,0.399,7.734,1.196c2.079,0.798,3.745,1.923,4.999,3.375c1.252,1.453,2.136,3.234,2.649,5.341
		c0.513,2.108,0.769,4.473,0.769,7.093v28.372h-5.384V62.042c0-1.88-0.17-3.632-0.513-5.256c-0.342-1.624-0.939-3.034-1.794-4.23
		c-0.854-1.196-2.008-2.136-3.461-2.82s-3.262-1.025-5.427-1.025c-2.166,0-4.088,0.384-5.768,1.153
		c-1.681,0.77-3.106,1.824-4.273,3.162c-1.168,1.339-2.08,2.935-2.734,4.786c-0.656,1.852-1.012,3.86-1.068,6.024v25.723h-5.384
		V45.463H74.175z"/>
	<path fill="#494949" d="M138.181,28.543c9.286,0.228,16.28,2.835,20.98,7.819c4.7,4.986,7.05,12.549,7.05,22.689
		c0,10.141-2.351,17.704-7.05,22.688c-4.7,4.986-11.694,7.592-20.98,7.819h-21.107V28.543H138.181z M135.276,84.603
		c4.386,0,8.161-0.47,11.323-1.41c3.162-0.94,5.768-2.436,7.819-4.487c2.051-2.051,3.56-4.7,4.529-7.947
		c0.968-3.248,1.453-7.149,1.453-11.708c0-4.558-0.485-8.46-1.453-11.708c-0.969-3.247-2.478-5.896-4.529-7.947
		c-2.051-2.051-4.658-3.546-7.819-4.486c-3.162-0.94-6.937-1.41-11.323-1.41h-12.391v51.103H135.276z"/>
	<path fill="#494949" d="M202.701,28.543c2.563,0,5.027,0.243,7.392,0.726c2.364,0.485,4.444,1.312,6.238,2.479
		c1.795,1.168,3.233,2.707,4.316,4.615c1.081,1.909,1.623,4.288,1.623,7.136c0,1.595-0.256,3.148-0.769,4.657
		c-0.513,1.51-1.239,2.877-2.179,4.102c-0.94,1.226-2.051,2.265-3.333,3.119c-1.281,0.854-2.721,1.453-4.315,1.794v0.171
		c3.931,0.513,7.063,2.123,9.4,4.829c2.335,2.707,3.504,6.054,3.504,10.041c0,0.97-0.086,2.065-0.257,3.29
		c-0.171,1.226-0.513,2.479-1.025,3.76c-0.513,1.282-1.254,2.55-2.222,3.803c-0.969,1.253-2.265,2.35-3.888,3.29
		c-1.624,0.94-3.619,1.709-5.982,2.308c-2.364,0.598-5.199,0.897-8.502,0.897h-25.808V28.543H202.701z M202.701,55.291
		c2.335,0,4.358-0.27,6.067-0.812c1.709-0.541,3.132-1.282,4.272-2.222c1.14-0.94,1.994-2.036,2.564-3.29
		c0.569-1.252,0.855-2.592,0.855-4.017c0-7.634-4.587-11.451-13.759-11.451h-19.997v21.792H202.701z M202.701,84.603
		c2.165,0,4.215-0.184,6.152-0.555c1.937-0.37,3.646-1.039,5.128-2.008c1.48-0.968,2.649-2.265,3.503-3.888
		c0.855-1.624,1.282-3.66,1.282-6.11c0-3.931-1.382-6.879-4.145-8.845c-2.764-1.965-6.738-2.948-11.921-2.948h-19.997v24.355
		H202.701z"/>
</g>
<linearGradient id="SVGID_1_" gradientUnits="userSpaceOnUse" x1="198.543" y1="-17.2065" x2="109.5454" y2="136.9417">
	<stop  offset="0" style="stop-color:#494949"/>
	<stop  offset="0.1517" style="stop-color:#6A6A6A"/>
	<stop  offset="0.4401" style="stop-color:#A2A2A2"/>
	<stop  offset="0.688" style="stop-color:#CBCBCB"/>
	<stop  offset="0.8826" style="stop-color:#E5E5E5"/>
	<stop  offset="1" style="stop-color:#EEEEEE"/>
</linearGradient>
<ellipse transform="matrix(-0.9951 0.0989 -0.0989 -0.9951 313.2534 104.2039)" fill="none" stroke="url(#SVGID_1_)" stroke-width="3" stroke-miterlimit="10" cx="154.043" cy="59.868" rx="127.043" ry="57.266"/>
<circle fill="#FF931E" cx="36.595" cy="66.77" r="22.543"/>
<g>
	<path fill="#FFFFFF" d="M51.17,64.941v4.008H38.321v12.908h-4.008V68.95h-12.85v-4.008h12.85V52.033h4.008v12.908H51.17z"/>
</g>
</svg>
